<svg width="150" height="51" viewBox="0 0 150 51" fill="none" xmlns="http://www.w3.org/2000/svg">
<g clip-path="url(#clip0_482_1550)">
<path d="M6.11854 0H143.881C147.241 0 149.972 2.73089 149.972 6.0912V44.6688C149.972 48.0291 147.241 50.76 143.881 50.76H6.11854C2.75823 50.76 0.0273438 48.0291 0.0273438 44.6688V6.0912C0.0273438 2.73089 2.75823 0 6.11854 0Z" fill="white"/>
<path d="M18.3212 24.3648C18.3212 24.3648 7.97629 18.6289 7.36717 18.2939C6.75805 17.9589 6.14893 18.1619 6.14893 18.8624V43.5826C6.14893 44.1105 6.58546 44.3338 7.11337 44.0496C7.64127 43.7551 18.3212 37.8365 18.3212 37.8365C18.3212 37.8365 19.7729 37.0345 20.4937 36.6284C21.6612 35.9787 23.9961 34.6894 23.9961 34.6894C23.9961 34.6894 28.8183 32.0194 29.4579 31.6641C30.0975 31.3088 30.0366 30.8215 29.4985 30.5474C28.9605 30.2733 24.0063 27.5018 24.0063 27.5018L18.3212 24.3648Z" fill="url(#paint0_linear_482_1550)"/>
<path d="M20.2299 31.0652L6.62625 18.1721C6.31154 18.2432 6.11865 18.4868 6.11865 18.8828V43.5521C6.11865 43.8871 6.25063 44.0902 6.42321 44.1612L20.2299 31.0652Z" fill="url(#paint1_linear_482_1550)"/>
<mask id="mask0_482_1550" style="mask-type:alpha" maskUnits="userSpaceOnUse" x="6" y="18" width="15" height="27">
<path d="M20.2299 31.0652L6.62625 18.1721C6.31154 18.2432 6.11865 18.4868 6.11865 18.8828V43.5521C6.11865 43.8871 6.25063 44.0902 6.42321 44.1612L20.2299 31.0652Z" fill="white"/>
</mask>
<g mask="url(#mask0_482_1550)">
</g>
<mask id="mask1_482_1550" style="mask-type:alpha" maskUnits="userSpaceOnUse" x="6" y="31" width="19" height="14">
<path d="M6.97975 44.0907L14.8475 39.7659C16.7866 38.6898 18.3195 37.8371 18.3195 37.8371L24.0351 34.761L20.2281 31.0657L6.42139 44.1617C6.57367 44.2125 6.84777 44.182 7.06096 44.0805" fill="white"/>
</mask>
<g mask="url(#mask1_482_1550)">
<path d="M18.2991 24.3653C18.2788 24.416 7.93391 18.67 7.33494 18.3756C6.72582 17.9898 6.1167 18.203 6.1167 18.8832V43.654C6.1167 44.2023 6.55324 44.4256 7.03038 44.1616C7.60904 43.8368 18.2788 37.9182 18.2991 37.8674L23.9842 34.7203C23.9538 34.7609 28.7658 32.0909 29.3648 31.7762C30.0551 31.3803 29.9841 30.893 29.4663 30.6595C28.9079 30.3346 23.9538 27.5631 23.9842 27.5124L18.2991 24.3653Z" fill="url(#paint2_linear_482_1550)"/>
</g>
<path d="M7.3452 18.2838C7.08125 18.1519 6.82745 18.1113 6.61426 18.162L20.2281 31.0754L23.9945 27.512L18.3195 24.3649C18.3195 24.3649 12.9694 21.4005 9.74107 19.6138L7.3452 18.2838Z" fill="url(#paint3_linear_482_1550)"/>
<mask id="mask2_482_1550" style="mask-type:alpha" maskUnits="userSpaceOnUse" x="6" y="18" width="18" height="14">
<path d="M7.3452 18.2838C7.08125 18.1519 6.82745 18.1113 6.61426 18.162L20.2281 31.0754L23.9945 27.512L18.3195 24.3649C18.3195 24.3649 12.9694 21.4005 9.74107 19.6138L7.3452 18.2838Z" fill="white"/>
</mask>
<g mask="url(#mask2_482_1550)">
</g>
<path d="M102.725 35.4205L101.598 36.4864C101.334 36.6286 101.08 36.8011 100.826 36.9128C100.045 37.2681 99.2529 37.3595 98.5422 37.3595C97.791 37.3595 96.6133 37.3087 95.4154 36.4357C93.7505 35.258 93.0195 33.2175 93.0195 31.451C93.0195 27.7862 95.9839 25.9893 98.4102 25.9893C99.2529 25.9893 100.126 26.2024 100.826 26.6491C102.004 27.4308 102.309 28.446 102.471 28.9942L96.9484 31.2378L95.1413 31.38C95.7301 34.385 97.7504 36.1311 99.9838 36.1311C101.101 36.1311 101.923 35.7656 102.684 35.39C102.684 35.39 102.837 35.3088 102.725 35.4205ZM99.3544 29.3902C99.8011 29.2277 100.024 29.0856 100.024 28.7506C100.024 27.7963 98.9788 26.6999 97.7199 26.6999C96.7961 26.6999 95.0499 27.441 95.0499 30.0094C95.0499 30.4155 95.1007 30.8419 95.121 31.2683L99.3544 29.3902Z" fill="black"/>
<path d="M91.1922 35.2883C91.1922 36.202 91.3546 36.3442 92.1261 36.4152C92.5322 36.466 92.9281 36.4863 93.3241 36.5269L92.4612 37.0446H88.3293C88.8673 36.334 88.9689 36.2629 88.9689 35.7959V35.268L88.9587 21.2583H87.1313L88.8876 20.4055H92.2378C91.5069 20.8319 91.2937 21.0857 91.2023 21.908L91.1922 35.2883Z" fill="black"/>
<path d="M84.7864 27.1465C85.3244 27.5932 86.4412 28.5373 86.4412 30.324C86.4412 32.0702 85.4666 32.8925 84.4818 33.6742C84.1773 33.9788 83.8219 34.3138 83.8219 34.8315C83.8219 35.3493 84.1773 35.6335 84.4311 35.8467L85.2737 36.5066C86.299 37.3797 87.233 38.1817 87.233 39.806C87.233 42.0191 85.1011 44.2627 81.0809 44.2627C77.6901 44.2627 76.0557 42.6384 76.0557 40.8923C76.0557 40.0395 76.4719 38.8416 77.8627 38.0193C79.3145 37.1259 81.2738 37.0041 82.3296 36.933C82.0047 36.5066 81.6291 36.0599 81.6291 35.329C81.6291 34.9331 81.7509 34.6894 81.8626 34.4051C81.6088 34.4255 81.3449 34.4559 81.1114 34.4559C78.6343 34.4559 77.2333 32.5879 77.2333 30.7504C77.2333 29.6642 77.7206 28.4662 78.7358 27.5932C80.0657 26.4866 81.6596 26.2937 82.9184 26.2937H87.7406L86.2381 27.1465H84.7864ZM83.1418 37.5929C82.9489 37.5624 82.8372 37.5624 82.6037 37.5624C82.3905 37.5624 81.1114 37.6132 80.1266 37.9482C79.6089 38.1411 78.0962 38.7197 78.0962 40.4253C78.0962 42.1308 79.7205 43.3592 82.2484 43.3592C84.5123 43.3592 85.7102 42.2526 85.7102 40.7705C85.7102 39.5319 84.9285 38.8822 83.1418 37.5929ZM83.8016 33.0448C84.3397 32.5067 84.3905 31.7555 84.3905 31.3291C84.3905 29.6337 83.3956 27.0043 81.4565 27.0043C80.8576 27.0043 80.1977 27.3089 79.8221 27.786C79.4261 28.2733 79.3145 28.9129 79.3145 29.522C79.3145 31.0956 80.2281 33.7047 82.2281 33.7047C82.8067 33.7047 83.4362 33.4204 83.8016 33.0448Z" fill="black"/>
<path d="M70.2083 37.3595C66.4825 37.3595 64.4927 34.4154 64.4927 31.7556C64.4927 28.6491 67.0002 25.9893 70.5636 25.9893C74.0051 25.9893 76.1675 28.7201 76.1675 31.5932C76.1675 34.3951 74.0356 37.3595 70.2083 37.3595ZM73.1219 35.4408C73.6904 34.6794 73.8325 33.7251 73.8325 32.8013C73.8325 30.6998 72.8478 26.6999 69.924 26.6999C69.1524 26.6999 68.3707 27.0045 67.8022 27.5121C66.8886 28.3445 66.716 29.3902 66.716 30.4155C66.716 32.7708 67.8631 36.6489 70.7159 36.6489C71.6498 36.6489 72.5838 36.2022 73.1219 35.4408Z" fill="black"/>
<path d="M57.7214 37.3595C53.9957 37.3595 52.0059 34.4154 52.0059 31.7556C52.0059 28.6491 54.5134 25.9893 58.0768 25.9893C61.5183 25.9893 63.6807 28.7201 63.6807 31.5932C63.6807 34.3951 61.5487 37.3595 57.7214 37.3595ZM60.6351 35.4408C61.2036 34.6794 61.3457 33.7251 61.3457 32.8013C61.3457 30.6998 60.3508 26.6999 57.4372 26.6999C56.6555 26.6999 55.8839 27.0045 55.3154 27.5121C54.3916 28.3445 54.2291 29.3902 54.2291 30.4155C54.2291 32.7708 55.3865 36.6489 58.229 36.6489C59.163 36.6489 60.097 36.2022 60.6351 35.4408Z" fill="black"/>
<path d="M50.4626 36.659L47.3053 37.39C46.0261 37.593 44.879 37.7758 43.6607 37.7758C37.5695 37.7656 35.2549 33.2581 35.2549 29.7252C35.2549 25.4208 38.5441 21.4209 44.1683 21.4209C45.3561 21.4209 46.5033 21.5935 47.5489 21.8879C49.2037 22.3549 49.9753 22.9335 50.4626 23.2686L48.6251 25.0249L47.8535 25.1974L48.4017 24.3142C47.6505 23.5833 46.28 22.2229 43.681 22.2229C40.1989 22.2229 37.5695 24.8827 37.5695 28.7709C37.5695 32.9434 40.5644 36.8722 45.3764 36.8722C46.7875 36.8722 47.5185 36.588 48.1784 36.324V32.7404L44.8485 32.9231L46.615 31.9688H51.295L50.7265 32.5272C50.5742 32.6592 50.5539 32.6998 50.5032 32.8825C50.4829 33.0855 50.4626 33.7251 50.4626 33.9586V36.659Z" fill="black"/>
<path d="M109.537 35.522V41.5218H108.349V26.2634H109.537V27.9994C110.308 26.8725 111.73 25.9893 113.364 25.9893C116.308 25.9893 118.298 28.2328 118.298 31.7759C118.298 35.2986 116.318 37.5828 113.364 37.5828C111.821 37.5828 110.43 36.7808 109.537 35.522ZM117.08 31.8673C117.08 29.1668 115.689 27.106 113.212 27.106C111.679 27.106 110.207 28.3242 109.567 29.3902V34.324C110.207 35.39 111.679 36.6489 113.212 36.6489C115.689 36.6489 117.08 34.5677 117.08 31.8673Z" fill="black"/>
<path d="M119.923 22.0298H121.141V37.3593H119.923V22.0298Z" fill="black"/>
<path d="M134.389 40.4658C134.643 40.5775 135.079 40.6486 135.354 40.6486C136.085 40.6486 136.582 40.3542 137.039 39.2984L137.902 37.3289L133.222 26.1921H134.552L138.562 35.8467L142.541 26.1921H143.881L138.176 39.6638C137.587 41.0547 136.653 41.7247 135.374 41.7247C134.988 41.7247 134.481 41.6536 134.186 41.5623L134.389 40.4658Z" fill="black"/>
<path d="M131.029 37.3493C130.948 36.9636 130.887 36.6285 130.846 36.3443C130.806 36.06 130.785 35.7758 130.785 35.4814C130.379 36.0803 129.8 36.5879 129.049 36.9839C128.308 37.3798 127.597 37.5727 126.633 37.5727C125.466 37.5727 124.562 37.2884 123.922 36.6996C123.283 36.1209 122.958 35.3291 122.958 34.3342C122.958 33.3393 123.425 32.5271 124.359 31.9079C125.293 31.2886 126.501 30.9739 127.993 30.9739H130.775V29.5932C130.775 28.8014 130.501 28.1719 129.963 27.7252C129.425 27.2684 128.663 27.0451 127.679 27.0451C126.775 27.0451 126.044 27.2583 125.486 27.6643C124.938 28.0806 124.653 28.5983 124.653 29.2176H123.435L123.415 29.1567C123.374 28.3141 123.75 27.5831 124.572 26.9435C125.384 26.304 126.44 25.9893 127.75 25.9893C129.049 25.9893 130.105 26.304 130.897 26.9334C131.689 27.5527 132.085 28.4562 132.085 29.6237V35.1057C132.085 35.5017 132.105 35.8773 132.156 36.2529C132.207 36.6285 132.288 36.994 132.389 37.3493H131.029ZM126.785 36.5473C127.801 36.5473 128.531 36.3138 129.273 35.8671C130.014 35.4205 130.511 34.8316 130.775 34.121V31.9789H127.973C126.907 31.9789 126.024 32.2124 125.323 32.6997C124.623 33.1769 124.278 33.7555 124.278 34.4357C124.278 35.0753 124.501 35.5829 124.948 35.9687C125.405 36.3544 126.014 36.5473 126.785 36.5473Z" fill="black"/>
<path d="M34.8486 11.7051C34.8486 9.52246 36.5948 8.11133 38.7673 8.11133C40.219 8.11133 41.1733 8.76106 41.7723 9.55291L40.7063 10.1214C40.3003 9.60367 39.5998 9.19759 38.7673 9.19759C37.2953 9.19759 36.1887 10.2432 36.1887 11.7051C36.1988 13.1569 37.2953 14.2127 38.7673 14.2127C39.5287 14.2127 40.1987 13.8878 40.5337 13.5833V12.5173H38.3003V11.4412H41.8332V14.0299C41.1023 14.7913 40.0566 15.2989 38.7673 15.2989C36.5948 15.3091 34.8486 13.8878 34.8486 11.7051Z" fill="black"/>
<path d="M43.5283 15.2075V8.2229H48.716V9.29901H44.8582V11.0959H48.6348V12.1822H44.8582V14.1314H48.716V15.2075H43.5283Z" fill="black"/>
<path d="M52.2391 15.2075V9.29901H49.9854V8.2229H55.8025V9.29901H53.5487V15.2075H52.2391Z" fill="black"/>
<path d="M60.4619 8.2229H61.7309V15.2075H60.4619V8.2229Z" fill="black"/>
<path d="M65.3656 15.2075V9.29901H63.1118V8.2229H68.9289V9.29901H66.6752V15.2075H65.3656Z" fill="black"/>
<path d="M73.2739 11.7151C73.2739 9.64414 74.8678 8.12134 77.1418 8.12134C79.3956 8.12134 80.9996 9.64414 80.9996 11.7151C80.9996 13.7862 79.3854 15.309 77.1418 15.309C74.8678 15.309 73.2739 13.7862 73.2739 11.7151ZM79.6189 11.6542C79.6189 10.233 78.6443 9.16699 77.1317 9.16699C75.6089 9.16699 74.6444 10.233 74.6444 11.6542C74.6444 13.0654 75.6089 14.1415 77.1317 14.1415C78.6443 14.1415 79.6189 13.0755 79.6189 11.6542Z" fill="black"/>
<path d="M87.6695 15.2075L83.7813 10.2127V15.2075H82.4717V8.2229H83.8117L87.6187 13.0654V8.2229H88.9284V15.2075H87.6695Z" fill="black"/>
</g>
<defs>
<linearGradient id="paint0_linear_482_1550" x1="11.7605" y1="26.3557" x2="20.3815" y2="39.0069" gradientUnits="userSpaceOnUse">
<stop stop-color="#FF177B"/>
<stop offset="1" stop-color="#FFEC73"/>
</linearGradient>
<linearGradient id="paint1_linear_482_1550" x1="15.4302" y1="8.64305" x2="-0.0548201" y2="41.5266" gradientUnits="userSpaceOnUse">
<stop stop-color="#064AA2"/>
<stop offset="1" stop-color="#63FFD4"/>
</linearGradient>
<linearGradient id="paint2_linear_482_1550" x1="20.1175" y1="23.406" x2="1.05956" y2="34.8069" gradientUnits="userSpaceOnUse">
<stop stop-color="#FF4521"/>
<stop offset="1" stop-color="#8A33DB"/>
</linearGradient>
<linearGradient id="paint3_linear_482_1550" x1="9.18844" y1="14.0242" x2="16.0116" y2="31.7596" gradientUnits="userSpaceOnUse">
<stop stop-color="#00A3B5"/>
<stop offset="1" stop-color="#D6FFA1"/>
</linearGradient>
<clipPath id="clip0_482_1550">
<rect width="150" height="50.76" fill="white"/>
</clipPath>
</defs>
</svg>
