<svg width="150" height="51" viewBox="0 0 150 51" fill="none" xmlns="http://www.w3.org/2000/svg">
<g clip-path="url(#clip0_482_1518)">
<path d="M6.11854 0H143.881C147.241 0 149.972 2.73089 149.972 6.0912V44.6688C149.972 48.0291 147.241 50.76 143.881 50.76H6.11854C2.75823 50.76 0.0273438 48.0291 0.0273438 44.6688V6.0912C0.0273438 2.73089 2.75823 0 6.11854 0Z" fill="white"/>
<path d="M32.8488 24.2228C32.8184 20.5884 35.8234 18.822 35.9554 18.7407C34.2498 16.2637 31.6103 15.9185 30.6865 15.888C28.4733 15.6545 26.3211 17.2179 25.1942 17.2179C24.0471 17.2179 22.3009 15.9185 20.4329 15.9489C18.0269 15.9896 15.763 17.3804 14.5346 19.5529C11.9865 23.969 13.8849 30.4663 16.3315 34.0398C17.5599 35.786 18.9812 37.7453 20.8593 37.6742C22.6867 37.6032 23.377 36.5068 25.58 36.5068C27.7728 36.5068 28.4124 37.6742 30.321 37.6336C32.2905 37.6032 33.5189 35.8773 34.7067 34.1109C36.1178 32.1109 36.6863 30.1313 36.7066 30.0298C36.6558 30.0095 32.8895 28.5679 32.8488 24.2228Z" fill="black"/>
<path d="M29.2449 13.5428C30.2296 12.3145 30.8997 10.6394 30.7169 8.93384C29.2957 8.99475 27.5089 9.91858 26.4836 11.1267C25.58 12.1926 24.7679 13.9286 24.9709 15.5631C26.5749 15.6849 28.2195 14.7509 29.2449 13.5428Z" fill="black"/>
<path d="M59.3657 37.42H56.8074L55.4064 33.0141H50.5335L49.2035 37.42H46.7163L51.5385 22.4255H54.5232L59.3657 37.42ZM54.9902 31.1664L53.7212 27.2579C53.5892 26.8518 53.3354 25.9178 52.9699 24.4356H52.9192C52.7669 25.0752 52.5334 26.0193 52.2085 27.2579L50.9598 31.1664H54.9902Z" fill="black"/>
<path d="M71.7612 31.8872C71.7612 33.7247 71.2637 35.1764 70.2587 36.2424C69.3653 37.1967 68.2486 37.6636 66.9288 37.6636C65.4974 37.6636 64.472 37.156 63.8426 36.1307V41.8057H61.4366V30.1613C61.4366 29.004 61.4061 27.8263 61.3452 26.6081H63.4568L63.5888 28.3238H63.6294C64.4314 27.0345 65.6497 26.3848 67.274 26.3848C68.5531 26.3848 69.6089 26.8924 70.4617 27.8974C71.3348 28.9126 71.7612 30.2324 71.7612 31.8872ZM69.3145 31.9684C69.3145 30.9126 69.081 30.0496 68.6039 29.3695C68.0861 28.6588 67.3857 28.3035 66.5126 28.3035C65.9238 28.3035 65.3857 28.5065 64.8984 28.8923C64.4213 29.2882 64.0964 29.7958 63.9543 30.4354C63.8832 30.7298 63.8426 30.9735 63.8426 31.1664V32.9734C63.8426 33.7551 64.0863 34.4252 64.5634 34.9632C65.0405 35.5013 65.67 35.7754 66.4415 35.7754C67.345 35.7754 68.0455 35.42 68.5531 34.7297C69.0607 34.0292 69.3145 33.1155 69.3145 31.9684Z" fill="black"/>
<path d="M84.1874 31.8872C84.1874 33.7247 83.69 35.1764 82.6849 36.2424C81.7916 37.1967 80.6748 37.6636 79.3551 37.6636C77.9236 37.6636 76.8983 37.156 76.2689 36.1307V41.8057H73.8629V30.1613C73.8629 29.004 73.8324 27.8263 73.7715 26.6081H75.8831L76.0151 28.3238H76.0557C76.8577 27.0345 78.0759 26.3848 79.7002 26.3848C80.9794 26.3848 82.0352 26.8924 82.888 27.8974C83.761 28.9126 84.1874 30.2324 84.1874 31.8872ZM81.7408 31.9684C81.7408 30.9126 81.5073 30.0496 81.0302 29.3695C80.5124 28.6588 79.8119 28.3035 78.9388 28.3035C78.35 28.3035 77.812 28.5065 77.3247 28.8923C76.8475 29.2882 76.5328 29.7958 76.3805 30.4354C76.3095 30.7298 76.2689 30.9735 76.2689 31.1664V32.9734C76.2689 33.7551 76.5125 34.4252 76.9897 34.9632C77.4668 35.5013 78.0962 35.7754 78.8678 35.7754C79.7713 35.7754 80.482 35.42 80.9794 34.7297C81.4972 34.0292 81.7408 33.1155 81.7408 31.9684Z" fill="black"/>
<path d="M98.0957 33.2172C98.0957 34.4963 97.649 35.5318 96.7658 36.3338C95.7912 37.2069 94.4309 37.6434 92.6847 37.6434C91.0705 37.6434 89.7812 37.3287 88.8066 36.7095L89.365 34.7095C90.4208 35.3288 91.5781 35.6435 92.837 35.6435C93.7405 35.6435 94.4512 35.4405 94.9486 35.0344C95.4562 34.6283 95.71 34.0801 95.71 33.3999C95.71 32.7908 95.4968 32.2832 95.0907 31.8669C94.6745 31.4507 93.9842 31.0649 93.0197 30.7096C90.37 29.7249 89.0604 28.2934 89.0604 26.4153C89.0604 25.1869 89.5274 24.1819 90.4513 23.39C91.3751 22.6083 92.6035 22.2124 94.1364 22.2124C95.4968 22.2124 96.6338 22.4459 97.5374 22.923L96.9282 24.8722C96.0755 24.4154 95.1212 24.1819 94.0451 24.1819C93.2025 24.1819 92.5324 24.3951 92.0553 24.8012C91.6594 25.1768 91.4563 25.6235 91.4563 26.1615C91.4563 26.7503 91.6898 27.2478 92.1467 27.6234C92.5426 27.9787 93.2735 28.3645 94.3293 28.7807C95.6186 29.2985 96.5628 29.9076 97.1719 30.6081C97.7912 31.3086 98.0957 32.1817 98.0957 33.2172Z" fill="black"/>
<path d="M106.055 28.4153H103.405V33.6639C103.405 34.9938 103.872 35.6638 104.806 35.6638C105.232 35.6638 105.588 35.6232 105.872 35.5522L105.943 37.3795C105.466 37.5521 104.846 37.6435 104.075 37.6435C103.121 37.6435 102.39 37.3491 101.852 36.7704C101.314 36.1917 101.05 35.2171 101.05 33.8568V28.4052H99.4761V26.6082H101.05V24.6286L103.405 23.918V26.6082H106.055V28.4153Z" fill="black"/>
<path d="M117.973 31.9279C117.973 33.5928 117.496 34.9532 116.552 36.0191C115.557 37.1155 114.237 37.6637 112.593 37.6637C111.009 37.6637 109.74 37.1358 108.796 36.0902C107.852 35.0445 107.385 33.7146 107.385 32.1106C107.385 30.4355 107.872 29.065 108.837 27.999C109.811 26.9331 111.121 26.395 112.765 26.395C114.349 26.395 115.628 26.9229 116.593 27.9787C117.516 28.9939 117.973 30.3137 117.973 31.9279ZM115.486 31.9786C115.486 30.9837 115.273 30.1411 114.846 29.4305C114.339 28.5675 113.618 28.1412 112.684 28.1412C111.72 28.1412 110.979 28.5675 110.481 29.4305C110.045 30.1411 109.842 31.004 109.842 32.0294C109.842 33.0243 110.055 33.877 110.481 34.5775C110.999 35.4405 111.73 35.8668 112.664 35.8668C113.577 35.8668 114.298 35.4303 114.826 34.5572C115.263 33.8263 115.486 32.9735 115.486 31.9786Z" fill="black"/>
<path d="M125.79 28.7197C125.557 28.6791 125.303 28.6588 125.029 28.6588C124.186 28.6588 123.527 28.9735 123.07 29.6131C122.674 30.1715 122.471 30.8923 122.471 31.745V37.42H120.065V30.009C120.065 28.7603 120.044 27.6233 119.994 26.6081H122.085L122.176 28.6791H122.247C122.501 27.9685 122.897 27.3898 123.445 26.9634C123.983 26.5777 124.562 26.3848 125.181 26.3848C125.405 26.3848 125.608 26.4051 125.78 26.4254L125.79 28.7197Z" fill="black"/>
<path d="M136.531 31.5016C136.531 31.9279 136.5 32.2934 136.44 32.5878H129.232C129.262 33.6538 129.607 34.4761 130.277 35.0345C130.886 35.5319 131.668 35.7857 132.633 35.7857C133.699 35.7857 134.673 35.6131 135.546 35.2781L135.922 36.943C134.896 37.3897 133.688 37.6131 132.298 37.6131C130.622 37.6131 129.303 37.1156 128.348 36.1309C127.394 35.1461 126.917 33.8162 126.917 32.1614C126.917 30.5371 127.364 29.1767 128.257 28.0905C129.191 26.9332 130.45 26.3545 132.034 26.3545C133.587 26.3545 134.775 26.9332 135.567 28.0905C136.206 29.0245 136.531 30.1513 136.531 31.5016ZM134.237 30.8823C134.257 30.1716 134.094 29.5524 133.77 29.0346C133.353 28.3646 132.714 28.0296 131.861 28.0296C131.079 28.0296 130.44 28.3544 129.952 29.0042C129.557 29.5219 129.313 30.1513 129.242 30.8721L134.237 30.8823Z" fill="black"/>
<path d="M53.833 17.0654H52.5742L51.8839 14.903H49.488L48.8281 17.0654H47.6099L49.9753 9.69507H51.4372L53.833 17.0654ZM51.6707 13.9894L51.0514 12.0605C50.9905 11.8676 50.8687 11.4006 50.6758 10.6697H50.6555C50.5742 10.9844 50.4727 11.4412 50.3001 12.0605L49.691 13.9894H51.6707Z" fill="black"/>
<path d="M59.7617 11.7458L57.7516 17.0655H56.6045L54.6553 11.7458H55.9243L56.8278 14.558C56.9801 15.0249 57.1121 15.4716 57.2136 15.898H57.244C57.3354 15.5122 57.4674 15.0656 57.6298 14.558L58.5232 11.7458H59.7617Z" fill="black"/>
<path d="M64.046 17.0653L63.9546 16.4562H63.9242C63.5587 16.9435 63.0409 17.1871 62.3709 17.1871C61.4166 17.1871 60.7466 16.5171 60.7466 15.6237C60.7466 14.3141 61.8836 13.6339 63.8531 13.6339V13.5324C63.8531 12.8319 63.4775 12.4868 62.7465 12.4868C62.2186 12.4868 61.7618 12.6187 61.3557 12.8827L61.1121 12.1111C61.5994 11.8066 62.2186 11.6543 62.9394 11.6543C64.3302 11.6543 65.0307 12.3852 65.0307 13.8573V15.8166C65.0307 16.3547 65.051 16.7709 65.112 17.0856L64.046 17.0653ZM63.8836 14.4156C62.5739 14.4156 61.9141 14.7304 61.9141 15.4918C61.9141 16.0501 62.2491 16.3242 62.7262 16.3242C63.3252 16.3242 63.8836 15.8674 63.8836 15.238V14.4156Z" fill="black"/>
<path d="M67.66 10.8726C67.264 10.8726 66.9595 10.568 66.9595 10.1619C66.9595 9.75583 67.2742 9.46143 67.6803 9.46143C68.0863 9.46143 68.4112 9.75583 68.401 10.1619C68.401 10.5883 68.0965 10.8726 67.66 10.8726ZM67.0914 11.7456H68.2691V17.0551H67.0914V11.7456Z" fill="black"/>
<path d="M70.3706 9.30933H71.5482V17.0553H70.3706V9.30933Z" fill="black"/>
<path d="M76.5635 17.0655L76.4722 16.4563H76.4417C76.0763 16.9436 75.5585 17.1873 74.8885 17.1873C73.9342 17.1873 73.2642 16.5172 73.2642 15.6239C73.2642 14.3143 74.4012 13.6341 76.3707 13.6341V13.5326C76.3707 12.8321 75.995 12.4869 75.2641 12.4869C74.7362 12.4869 74.2794 12.6189 73.8733 12.8828L73.6296 12.1011C74.1169 11.7966 74.7362 11.6443 75.457 11.6443C76.8478 11.6443 77.5483 12.3752 77.5483 13.8473V15.8066C77.5483 16.3447 77.5686 16.7609 77.6193 17.0756H76.5635V17.0655ZM76.4011 14.4158C75.0915 14.4158 74.4316 14.7305 74.4316 15.4919C74.4316 16.0503 74.7666 16.3244 75.2438 16.3244C75.8428 16.3244 76.4011 15.8675 76.4011 15.2381V14.4158Z" fill="black"/>
<path d="M82.3399 17.1873C81.5886 17.1873 81.0302 16.8726 80.6648 16.2431H80.6445L80.5734 17.0655H79.5684C79.5988 16.6391 79.609 16.1619 79.609 15.634V9.30933H80.7968V12.5275H80.8171C81.1724 11.9387 81.7307 11.6443 82.5124 11.6443C83.7916 11.6443 84.685 12.7407 84.685 14.3346C84.685 15.9792 83.6901 17.1873 82.3399 17.1873ZM82.0962 12.5681C81.416 12.5681 80.7968 13.1569 80.7968 13.9792V14.9132C80.7968 15.6442 81.3551 16.2431 82.0759 16.2431C82.9591 16.2431 83.487 15.5224 83.487 14.3752C83.487 13.2991 82.9388 12.5681 82.0962 12.5681Z" fill="black"/>
<path d="M86.4312 9.30933H87.6088V17.0553H86.4312V9.30933Z" fill="black"/>
<path d="M94.035 14.6899H90.492C90.5123 15.695 91.1823 16.2635 92.1671 16.2635C92.695 16.2635 93.1721 16.1721 93.5985 16.0097L93.7812 16.832C93.2838 17.0553 92.695 17.1569 92.0047 17.1569C90.3397 17.1569 89.355 16.1112 89.355 14.4767C89.355 12.8524 90.36 11.624 91.8727 11.624C93.2229 11.624 94.0858 12.6291 94.0858 14.1519C94.0858 14.3651 94.0757 14.5478 94.035 14.6899ZM92.9589 13.8473C92.9589 13.025 92.5427 12.4463 91.7915 12.4463C91.1113 12.4463 90.5834 13.0352 90.5022 13.8473H92.9589Z" fill="black"/>
<path d="M101.192 17.1873C99.6388 17.1873 98.6338 16.03 98.6338 14.4564C98.6338 12.8118 99.6591 11.6443 101.283 11.6443C102.816 11.6443 103.842 12.7509 103.842 14.365C103.842 16.0198 102.786 17.1873 101.192 17.1873ZM101.243 12.5072C100.39 12.5072 99.8419 13.3092 99.8419 14.4158C99.8419 15.5122 100.4 16.3041 101.233 16.3041C102.065 16.3041 102.624 15.4513 102.624 14.3853C102.613 13.3092 102.075 12.5072 101.243 12.5072Z" fill="black"/>
<path d="M110.187 17.0654H109.009V14.0096C109.009 13.0655 108.644 12.5985 107.933 12.5985C107.232 12.5985 106.755 13.1974 106.755 13.8979V17.0552H105.578V13.2685C105.578 12.8015 105.568 12.2939 105.537 11.7457H106.573L106.623 12.568H106.654C106.969 11.9995 107.618 11.634 108.339 11.634C109.456 11.634 110.187 12.4868 110.187 13.8776V17.0654Z" fill="black"/>
<path d="M117.913 12.6392H116.613V15.2178C116.613 15.8776 116.847 16.2025 117.303 16.2025C117.506 16.2025 117.689 16.1822 117.831 16.1518L117.862 17.0451C117.628 17.1365 117.324 17.1771 116.948 17.1771C116.014 17.1771 115.466 16.6594 115.466 15.3193V12.6392H114.694V11.7559H115.466V10.7813L116.623 10.426V11.7458H117.923V12.6392" fill="black"/>
<path d="M124.166 17.0655H122.989V14.03C122.989 13.0757 122.623 12.5986 121.912 12.5986C121.303 12.5986 120.735 13.0148 120.735 13.8574V17.0553H119.557V9.30933H120.735V12.4971H120.755C121.131 11.9184 121.659 11.6341 122.349 11.6341C123.476 11.6341 124.166 12.5072 124.166 13.898V17.0655Z" fill="black"/>
<path d="M130.197 14.6899H126.654C126.674 15.695 127.344 16.2635 128.329 16.2635C128.857 16.2635 129.334 16.1721 129.76 16.0097L129.943 16.832C129.445 17.0553 128.857 17.1569 128.166 17.1569C126.501 17.1569 125.517 16.1112 125.517 14.4767C125.517 12.8524 126.522 11.624 128.034 11.624C129.385 11.624 130.247 12.6291 130.247 14.1519C130.247 14.3651 130.237 14.5478 130.197 14.6899ZM129.121 13.8473C129.121 13.025 128.704 12.4463 127.953 12.4463C127.273 12.4463 126.735 13.0352 126.664 13.8473H129.121Z" fill="black"/>
</g>
<defs>
<clipPath id="clip0_482_1518">
<rect width="150" height="50.76" fill="white"/>
</clipPath>
</defs>
</svg>
